#N canvas 261 239 1061 655 12;
#X obj 85 118 readsf~;
#X obj 86 189 dac~;
#X msg 51 56 1;
#X msg 17 81 0;
#X msg 145 55 open sound.wav;
#X obj 267 199 readsf~;
#X obj 268 270 dac~;
#X msg 233 137 1;
#X msg 199 162 0;
#X obj 323 108 openpanel;
#X msg 323 154 open \$1;
#X obj 323 44 bng 15 250 50 0 empty empty empty 17 7 0 10 -262144 -1
-1;
#X obj 501 74 soundfiler;
#X obj 491 154 expr 44100/$f1;
#X msg 164 85 open sound2.wav;
#X obj 486 249 phasor~;
#X obj 741 267 *~;
#X obj 740 317 tabread4~ soundData;
#X obj 740 390 dac~;
#X msg 437 106 0;
#X obj 521 188 hsl 128 15 0 127 0 0 empty empty empty -2 -8 0 10 -262144
-1 -1 0 1;
#X msg 501 35 read -resize sound.wav soundData;
#N canvas 0 50 450 250 (subpatch) 0;
#X array soundData 8.52197e+006 float 2;
#X coords 0 1 8.52197e+006 -1 200 140 1;
#X restore 782 94 graph;
#X floatatom 517 217 5 0 0 0 - - -;
#X floatatom 502 110 5 0 0 0 - - -;
#X connect 0 0 1 0;
#X connect 0 0 1 1;
#X connect 2 0 0 0;
#X connect 3 0 0 0;
#X connect 4 0 0 0;
#X connect 5 0 6 0;
#X connect 5 0 6 1;
#X connect 7 0 5 0;
#X connect 8 0 5 0;
#X connect 9 0 10 0;
#X connect 10 0 5 0;
#X connect 11 0 9 0;
#X connect 12 0 24 0;
#X connect 13 0 15 0;
#X connect 14 0 0 0;
#X connect 15 0 16 0;
#X connect 16 0 17 0;
#X connect 17 0 18 0;
#X connect 17 0 18 1;
#X connect 19 0 15 0;
#X connect 20 0 23 0;
#X connect 21 0 12 0;
#X connect 23 0 15 0;
#X connect 24 0 13 0;
#X connect 24 0 16 1;
